HIERARCHY
ROOT NOSE_ROOT
{
    OFFSET 0.0 0.0 0.0
    CHANNELS 6 Xposition Yposition Zposition Zrotation Xrotation Yrotation
    JOINT LEFT_SHOULDER
    {
        OFFSET 0.9337092504914329 0.0 0.0
        CHANNELS 3 Zrotation Xrotation Yrotation
        JOINT LEFT_ELBOW
        {
            OFFSET 0.6013221453917361 0.0 0.0
            CHANNELS 3 Zrotation Xrotation Yrotation
            JOINT LEFT_WRIST
            {
                OFFSET 0.6594842216526147 0.0 0.0
                CHANNELS 3 Zrotation Xrotation Yrotation
                JOINT LEFT_THUMB_MCP
                {
                    OFFSET 0.09172733730125021 0.0 0.0
                    CHANNELS 3 Zrotation Xrotation Yrotation
                    JOINT LEFT_THUMB_PIP
                    {
                        OFFSET 0.08492545349057463 0.0 0.0
                        CHANNELS 3 Zrotation Xrotation Yrotation
                        JOINT LEFT_THUMB_DIP
                        {
                            OFFSET 0.06895741516361624 0.0 0.0
                            CHANNELS 3 Zrotation Xrotation Yrotation
                            End Site
                            {
                                OFFSET 0.0 0.0 0.006895741516361626
                            }
                        }
                    }
                }
                JOINT LEFT_INDEX_FINGER_MCP
                {
                    OFFSET 0.17124607753576 0.0 0.0
                    CHANNELS 3 Zrotation Xrotation Yrotation
                    JOINT LEFT_INDEX_FINGER_PIP
                    {
                        OFFSET 0.08179689552950352 0.0 0.0
                        CHANNELS 3 Zrotation Xrotation Yrotation
                        JOINT LEFT_INDEX_FINGER_DIP
                        {
                            OFFSET 0.04226105895425937 0.0 0.0
                            CHANNELS 3 Zrotation Xrotation Yrotation
                            End Site
                            {
                                OFFSET 0.0 0.0 0.0042261058954259365
                            }
                        }
                    }
                }
                JOINT LEFT_MIDDLE_FINGER_MCP
                {
                    OFFSET 0.1494457580074503 0.0 0.0
                    CHANNELS 3 Zrotation Xrotation Yrotation
                    JOINT LEFT_MIDDLE_FINGER_PIP
                    {
                        OFFSET 0.08574758711140573 0.0 0.0
                        CHANNELS 3 Zrotation Xrotation Yrotation
                        JOINT LEFT_MIDDLE_FINGER_DIP
                        {
                            OFFSET 0.04230595408913265 0.0 0.0
                            CHANNELS 3 Zrotation Xrotation Yrotation
                            End Site
                            {
                                OFFSET 0.0 0.0 0.004230595408913266
                            }
                        }
                    }
                }
                JOINT LEFT_RING_FINGER_MCP
                {
                    OFFSET 0.1402638513193883 0.0 0.0
                    CHANNELS 3 Zrotation Xrotation Yrotation
                    JOINT LEFT_RING_FINGER_PIP
                    {
                        OFFSET 0.08293790030327888 0.0 0.0
                        CHANNELS 3 Zrotation Xrotation Yrotation
                        JOINT LEFT_RING_FINGER_DIP
                        {
                            OFFSET 0.040602815869159474 0.0 0.0
                            CHANNELS 3 Zrotation Xrotation Yrotation
                            End Site
                            {
                                OFFSET 0.0 0.0 0.004060281586915948
                            }
                        }
                    }
                }
                JOINT LEFT_PINKY_MCP
                {
                    OFFSET 0.14587534194291277 0.0 0.0
                    CHANNELS 3 Zrotation Xrotation Yrotation
                    JOINT LEFT_PINKY_PIP
                    {
                        OFFSET 0.06799065323158118 0.0 0.0
                        CHANNELS 3 Zrotation Xrotation Yrotation
                        JOINT LEFT_PINKY_DIP
                        {
                            OFFSET 0.03480328362579703 0.0 0.0
                            CHANNELS 3 Zrotation Xrotation Yrotation
                            End Site
                            {
                                OFFSET 0.0 0.0 0.0034803283625797037
                            }
                        }
                    }
                }
            }
        }
    }
    JOINT RIGHT_SHOULDER
    {
        OFFSET -0.9337092504914329 0.0 0.0
        CHANNELS 3 Zrotation Xrotation Yrotation
        JOINT RIGHT_ELBOW
        {
            OFFSET -0.6013221453917361 0.0 0.0
            CHANNELS 3 Zrotation Xrotation Yrotation
            JOINT RIGHT_WRIST
            {
                OFFSET -0.6594842216526147 0.0 0.0
                CHANNELS 3 Zrotation Xrotation Yrotation
                JOINT RIGHT_THUMB_MCP
                {
                    OFFSET -0.09172733730125021 0.0 0.0
                    CHANNELS 3 Zrotation Xrotation Yrotation
                    JOINT RIGHT_THUMB_PIP
                    {
                        OFFSET -0.08492545349057463 0.0 0.0
                        CHANNELS 3 Zrotation Xrotation Yrotation
                        JOINT RIGHT_THUMB_DIP
                        {
                            OFFSET -0.06895741516361624 0.0 0.0
                            CHANNELS 3 Zrotation Xrotation Yrotation
                            End Site
                            {
                                OFFSET 0.0 0.0 0.006895741516361626
                            }
                        }
                    }
                }
                JOINT RIGHT_INDEX_FINGER_MCP
                {
                    OFFSET -0.17124607753576 0.0 0.0
                    CHANNELS 3 Zrotation Xrotation Yrotation
                    JOINT RIGHT_INDEX_FINGER_PIP
                    {
                        OFFSET -0.08179689552950352 0.0 0.0
                        CHANNELS 3 Zrotation Xrotation Yrotation
                        JOINT RIGHT_INDEX_FINGER_DIP
                        {
                            OFFSET -0.04226105895425937 0.0 0.0
                            CHANNELS 3 Zrotation Xrotation Yrotation
                            End Site
                            {
                                OFFSET 0.0 0.0 0.0042261058954259365
                            }
                        }
                    }
                }
                JOINT RIGHT_MIDDLE_FINGER_MCP
                {
                    OFFSET -0.1494457580074503 0.0 0.0
                    CHANNELS 3 Zrotation Xrotation Yrotation
                    JOINT RIGHT_MIDDLE_FINGER_PIP
                    {
                        OFFSET -0.08574758711140573 0.0 0.0
                        CHANNELS 3 Zrotation Xrotation Yrotation
                        JOINT RIGHT_MIDDLE_FINGER_DIP
                        {
                            OFFSET -0.04230595408913265 0.0 0.0
                            CHANNELS 3 Zrotation Xrotation Yrotation
                            End Site
                            {
                                OFFSET 0.0 0.0 0.004230595408913266
                            }
                        }
                    }
                }
                JOINT RIGHT_RING_FINGER_MCP
                {
                    OFFSET -0.1402638513193883 0.0 0.0
                    CHANNELS 3 Zrotation Xrotation Yrotation
                    JOINT RIGHT_RING_FINGER_PIP
                    {
                        OFFSET -0.08293790030327888 0.0 0.0
                        CHANNELS 3 Zrotation Xrotation Yrotation
                        JOINT RIGHT_RING_FINGER_DIP
                        {
                            OFFSET -0.040602815869159474 0.0 0.0
                            CHANNELS 3 Zrotation Xrotation Yrotation
                            End Site
                            {
                                OFFSET 0.0 0.0 0.004060281586915948
                            }
                        }
                    }
                }
                JOINT RIGHT_PINKY_MCP
                {
                    OFFSET -0.14587534194291277 0.0 0.0
                    CHANNELS 3 Zrotation Xrotation Yrotation
                    JOINT RIGHT_PINKY_PIP
                    {
                        OFFSET -0.06799065323158118 0.0 0.0
                        CHANNELS 3 Zrotation Xrotation Yrotation
                        JOINT RIGHT_PINKY_DIP
                        {
                            OFFSET -0.03480328362579703 0.0 0.0
                            CHANNELS 3 Zrotation Xrotation Yrotation
                            End Site
                            {
                                OFFSET 0.0 0.0 0.0034803283625797037
                            }
                        }
                    }
                }
            }
        }
    }
}
MOTION
Frames: 4
Frame Time: 0.03333333333333333
0.8094512830744112 0.33697467271124043 -1.3986841097419733 -161.581007746484 41.46501424252839 167.3341286384273 10.194302491338835 -19.58732616550148 81.02999812453173 -73.48665139685055 -2.495957109869527e-15 2.195139467212852e-14 -44.70516540277518 3.1087816500613084 19.294541024817583 -157.54723477957697 -5.451760049559513 -177.7516236601371 -15.235274812753158 -1.1249753625772552 -0.3063702902249193 -10.482341913746659 2.747669120061949 0.508166363622162 -125.5554474155158 -0.051538105069916865 -173.23233875362158 -12.5170924036043 -2.2218594010748283 -0.4931340184001423 -9.441215835778658 -3.689272400981351 -0.6130348007010824 -124.5189857952263 12.321787964096398 -174.39523490246594 -5.275442079932907 -12.064715731493646 -1.1056430892347655 -177.0593694940277 -27.784846982529633 -178.62827448104898 77.29105441769917 75.47787006724926 -19.98760996172078 -4.0882531553921035 15.44788482001973 1.0906744103949713 -65.65519206882377 -77.69580123515102 -65.15131196970276 62.06259407996408 26.513877810650595 -5.322729961721385 -7.030635234617413 29.587772456006217 3.4846464522870075 -17.288166041547946 -44.71939172798196 -12.352677205090528 25.92163310072311 -23.935961373580295 -73.7549723482122 68.40390017966361 9.781819947110896e-15 8.734230127066427e-15 11.66151970866734 19.905737121177935 -4.019582794350424 -165.88265238628094 7.445429081029259 -175.53204635391916 15.734177236046847 -1.0806032560184011 0.3044185950858264 10.984948765433318 2.6127644409568695 -0.5069687229206932 160.1081265838575 6.904635256386267 -174.08515755597273 13.151511113257618 -2.1032365497281265 0.4913097789344013 9.831681237548336 -3.5107954452670143 0.6080155648223602 156.19257856403678 18.133367743263435 -172.18121908832592 5.475702542060309 -11.622483990943655 1.1063809765357975 176.938216783229 -26.593669900347173 178.62831715310048 -2.4789285144594086 67.43535816400284 -21.606191162804286 4.09752270596155 16.22043083271979 -1.146377706539105 66.40644771682973 -77.12188968381048 65.86644284765802 -21.445301469631225 19.286984792174223 -8.98200139409919 7.137819113553656 29.121422737989008 -3.4874750092130613 17.784500651985518 -43.409241815480975 12.431038971639028
0.8157489881515124 0.3516497363726103 -1.5408317325820848 -163.05786776117438 38.154673317455746 168.87001931987405 10.969354516722708 -19.17549119864498 81.36115255728295 -81.68351716597616 0.0 0.0 -44.741737089822706 1.8710488609534297 16.69416047006519 -157.57575222280545 -4.915582266567183 -177.97484036671955 -15.108980904691325 -1.0468470963771146 -0.2826190504893531 -10.356820670693784 2.563132899159216 0.46825984551349503 -125.8559123033482 0.04240923378484819 -173.8761016034186 -12.3443871701143 -2.079607424132042 -0.4550062110626628 -9.307318449962871 -3.4582101854676783 -0.5663947086894099 -124.67716136450035 11.654762359823852 -174.96721883924613 -5.112969560781491 -11.507542470117796 -1.0226294144208588 -177.137545201967 -26.243892817696914 -178.73339450456837 73.20465211709826 74.05936866341858 -16.268315762490225 -3.7852179055600117 16.451694586003434 1.0734364361836355 -64.88434865393124 -77.78198739004144 -64.37616519550541 61.26840633985319 24.822249486539096 -4.70243844069086 -6.619674568302983 28.98378930368315 3.2186027101117682 -16.620143188415053 -43.23445188782763 -11.555719111848356 29.010830537201947 -27.412087221258407 -68.37905563650979 76.15733506215561 2.858507449097106e-15 -2.193780524623834e-16 24.17791270182859 36.77697603297873 -15.044931993123313 -172.6106928122732 26.387987904514684 175.8955345030848 18.28525146576473 -4.793885405557372 1.5818076110207466 11.917769556940506 2.0103309245927474 -0.42419957824168814 145.8151232590342 21.614904046619785 -167.57401993812502 14.658971668743517 -4.949438145948436 1.292844335443077 8.880598976942025 -11.987776263282447 1.8587887930843692 141.82838100585022 20.451339383850193 -164.64080705182954 5.282612058808899 -18.79384475944139 1.706201668275174 176.79569551305804 -26.390787056529945 178.57452244877928 141.98055503699902 16.983548868372786 -164.03233827188566 32.795184682773126 -83.82289105029871 32.643465332025535 137.0324909754397 -73.8317873933317 138.18371307416967 -40.521564417157954 -18.35793410597067 -17.874357976561033 8.01171398554707 53.27916105894093 -6.436822624229935 20.453308502518624 -51.00596137270219 16.165064288230443
0.8189280868401504 0.3644065007988083 -1.3058201702905023 -162.86478591384895 42.69140677665081 167.6424016988742 7.944076776524828 -19.936888615003554 79.48749583946586 -73.10661852564081 -7.620912840883305e-15 2.2685321207295688e-15 -44.72527691261212 2.8612230369147524 17.453118858748017 -157.62833514028645 -3.817511809168084 -178.43029850271574 -15.033135608745207 -1.1697322476586551 -0.3141290087844234 -10.286622091672484 2.8679403247423494 0.5202697469147557 -126.12578536970626 1.0931218809879504 -174.6492802140791 -12.276705161745486 -2.3212193845795013 -0.5049679151356328 -9.298797082339483 -3.843102271142263 -0.6287523140561332 -124.83800417818662 13.933020757262247 -175.8938603064908 -5.233134019936886 -12.423643737127191 -1.1288428497177752 -177.09128246215968 -28.792485059252684 -178.5981240026204 70.92924553856545 75.8499595984194 -14.00628883304875 -4.172392270978322 14.833399837542967 1.06993908703885 -65.46306155338274 -77.92749009901098 -64.97544004367474 60.689085280673176 26.68014008190084 -3.5840695611363045 -7.102163144993938 29.92578785104619 3.5567950598856504 -17.2499895294534 -45.71624184729282 -12.532498655528595 37.201515775274586 -35.78332750329128 -56.164591265905464 75.9694299237516 2.2364956662948544e-15 2.5411684152738027e-15 38.17586938292275 54.673566602184984 -32.678990158540735 -16.51235844319028 52.893875831784484 21.100068445802552 43.02231661242175 52.95538836646587 -36.68183302447028 15.042634353480402 0.6897559127602825 -0.18536462959615624 125.67903886389108 39.67594369767077 -144.84961598228955 18.942133120638765 -4.7648450106019204 1.632960121381867 8.133748394141056 -24.83550748132227 3.435306256334436 121.8945791170845 31.138516949869214 -140.2752720043986 5.77838182218276 -2.51215070412852 0.25413425403150314 176.27442597734358 -18.04211110345812 178.84465808029418 130.85335760546903 20.629425129383318 -143.81683621942307 6.752401103352152 -58.42252441012694 5.75989168549346 169.10182614655787 -25.255095175325515 175.30394897923009 154.709110656334 -11.539453101708988 -142.22765649775195 176.13624850269585 -52.25142380321519 176.9431773632948 152.68506396323363 -61.33439747915276 155.62151963001244
0.813075414929946 0.36447409194916003 -1.3174630996681793 -168.10424902966793 42.91390003517126 171.30828178352246 3.628882074398815 -19.725667186980562 78.82914474666742 -71.95749298832865 9.008356296461814e-15 6.539849832969836e-15 -43.74442981040408 3.159588834025506 18.16147334377779 -157.69528456052453 -4.222859370930832 -178.26976722160825 -14.625896257479667 -1.2548194828845445 -0.32743195090739746 -9.903206809091518 3.099184735840114 0.540793199344312 -127.30774196263802 1.0504772054113811 -174.2739798266171 -11.808333075615296 -2.512314909180368 -0.5250482896901727 -9.016358939889473 -4.136154551754367 -0.6557146234463024 -126.23857477312976 14.83851250418111 -175.53754137123022 -5.146998351576364 -13.06562345656081 -1.1665447798289184 -177.15518827310504 -30.666710244591417 -178.54814030592422 72.98627407246971 77.48520124835471 -17.326532971272993 -4.314506650189522 13.771686158741986 1.0289186426488386 -64.92506682859151 -78.36412674462231 -64.4653377201208 59.65863029071273 28.810192192895755 -4.00300825062896 -7.21417838122952 30.43034748762162 3.6683250301522157 -17.12390789560879 -47.47151115243369 -12.792098533508245 58.69952658863577 -50.677049933656214 -27.85114022687404 66.75220135130866 4.82745741504902e-15 4.437155536315024e-15 103.64930353382152 -25.3000397538759 -60.393603420618504 93.79319693017085 20.13352876505407 153.61712762626644 52.32461322272264 -44.96863126621794 42.46476608689729 22.57909998822992 -0.7321852473235245 0.3044548375756395 56.98923752028228 -3.921959282471675 -142.62418959705954 48.65619168466453 -52.48578955747088 42.03441303788609 7.648910111466235 -38.778207330617285 4.807914977615561 76.36038447101879 -23.552336981300428 -121.26910874597414 19.758885982167687 -61.813766634445564 17.56858680852936 174.21747644341767 -6.924364718525193 179.30052292430062 91.7465151829197 -31.60307588854409 -114.4658236294602 159.40923726546643 -68.27356115677924 160.7608651689487 170.4588646516404 17.228857383886723 -177.14995744311548 108.8864275651461 -30.337124070685547 -105.8875686390452 153.94109844444426 -66.69194229524386 155.81522769790644 167.11550265922352 19.735694031340266 -175.58305663735683
